# xmcd CD database file
# Copyright (C) 1993-1996 Ti Kan
#
# Track frame offsets:
#	183
#	17443
#	41295
#	53723
#	72890
#	84648
#	116243
#	136850
#	163825
#	178240
#	189105
#	204278
#	222345
#	236935
#	263320
#
# Disc length: 3907 seconds
#
# Revision: 1
# Processed by: cddbd v1.4b41PL1 Copyright (c) Steve Scherf et al.
# Submitted via: CDValet v3.31 - Copyright (c) 1997 Greg Leichner
#
DISCID=c90f410f
DTITLE=Hank Ballard and The Midnighters - Live At The Palais
DYEAR=1900
DGENRE=
TTITLE0=The Hoochi Coochi Coo
TTITLE1=Medley: Work With Me Annie - Annie Had A Baby
TTITLE2=Tore Up Over You
TTITLE3=Teardrops On Your Letter
TTITLE4=Look At Little Sister--The Midnighters
TTITLE5=Medley: My Girl/The Girl's Alright With Me/You're All I
TTITLE5=Neeed To Get By/I'll Try Something New/Stand By Me
TTITLE6=Hold On I'm Comin'/Soul Man
TTITLE7=The Sky Is Crying
TTITLE8=Sugaree
TTITLE9=Sexy Ways
TTITLE10=Deep Blue Sea
TTITLE11=Christmas Time For Everyone But Me
TTITLE12=Finger Poppin' Time
TTITLE13=Let's Go, Let's Go, Let's Go 
TTITLE14=The Twist
EXTD=
EXTT0=
EXTT1=
EXTT2=
EXTT3=
EXTT4=
EXTT5=
EXTT6=
EXTT7=
EXTT8=
EXTT9=
EXTT10=
EXTT11=
EXTT12=
EXTT13=
EXTT14=
PLAYORDER=
